<?xml version="1.0" encoding="utf-8"?>
<!-- Generator: Adobe Illustrator 22.1.0, SVG Export Plug-In . SVG Version: 6.00 Build 0)  -->
<svg version="1.2" baseProfile="tiny" id="レイヤー_1"
	 xmlns="http://www.w3.org/2000/svg" xmlns:xlink="http://www.w3.org/1999/xlink" x="0px" y="0px" width="36.8px" height="39.5px"
	 viewBox="0 0 36.8 39.5" xml:space="preserve">
<g>
	<path fill="#0F3058" d="M-0.1,39.5h36.9V0L-0.1,0V39.5z M34.1,36c0,0.9-0.7,1.6-1.6,1.6c-0.9,0-1.6-0.7-1.6-1.6
		c0-0.9,0.7-1.6,1.6-1.6C33.4,34.4,34.1,35.1,34.1,36z M26.9,36c0,0.9-0.7,1.6-1.6,1.6c-0.9,0-1.6-0.7-1.6-1.6
		c0-0.9,0.7-1.6,1.6-1.6C26.2,34.4,26.9,35.1,26.9,36z M19.7,36c0,0.9-0.7,1.6-1.6,1.6c-0.9,0-1.6-0.7-1.6-1.6
		c0-0.9,0.7-1.6,1.6-1.6C19,34.4,19.7,35.1,19.7,36z M12.5,36c0,0.9-0.7,1.6-1.6,1.6c-0.9,0-1.6-0.7-1.6-1.6s0.7-1.6,1.6-1.6
		C11.8,34.4,12.5,35.1,12.5,36z M5.3,36c0,0.9-0.7,1.6-1.6,1.6c-0.9,0-1.6-0.7-1.6-1.6c0-0.9,0.7-1.6,1.6-1.6
		C4.6,34.4,5.3,35.1,5.3,36z"/>
	<g>
		
			<rect x="2.7" y="17.4" transform="matrix(6.123234e-17 -1 1 6.123234e-17 -16.4394 26.3497)" fill="#3B4149" width="4.4" height="8"/>
		<g>
			
				<rect x="0.9" y="16.8" transform="matrix(6.123234e-17 -1 1 6.123234e-17 -14.942 20.0811)" fill="#8C8C8C" width="3.4" height="1.5"/>
			
				<rect x="6.1" y="16.8" transform="matrix(6.123234e-17 -1 1 6.123234e-17 -9.7647 25.2584)" fill="#8C8C8C" width="3.4" height="1.5"/>
		</g>
		<g>
			
				<rect x="0.9" y="24.5" transform="matrix(6.123234e-17 -1 1 6.123234e-17 -22.708 27.8471)" fill="#8C8C8C" width="3.4" height="1.5"/>
			
				<rect x="3.5" y="24.5" transform="matrix(6.123234e-17 -1 1 6.123234e-17 -20.1193 30.4358)" fill="#8C8C8C" width="3.4" height="1.5"/>
			
				<rect x="6.1" y="24.5" transform="matrix(6.123234e-17 -1 1 6.123234e-17 -17.5306 33.0244)" fill="#8C8C8C" width="3.4" height="1.5"/>
		</g>
	</g>
	<g>
		
			<rect x="18.3" y="10.8" transform="matrix(6.123234e-17 -1 1 6.123234e-17 7.4528 37.4866)" fill="#3B4149" width="8.3" height="8.3"/>
		<g>
			
				<rect x="26.8" y="16.3" transform="matrix(6.123234e-17 -1 1 6.123234e-17 10.3027 44.3614)" fill="#8C8C8C" width="1" height="1.4"/>
			
				<rect x="26.8" y="14.9" transform="matrix(6.123234e-17 -1 1 6.123234e-17 11.6989 42.9652)" fill="#8C8C8C" width="1" height="1.4"/>
			
				<rect x="26.8" y="13.5" transform="matrix(6.123234e-17 -1 1 6.123234e-17 13.0951 41.569)" fill="#8C8C8C" width="1" height="1.4"/>
			
				<rect x="26.8" y="12.1" transform="matrix(6.123234e-17 -1 1 6.123234e-17 14.4913 40.1728)" fill="#8C8C8C" width="1" height="1.4"/>
		</g>
		<g>
			
				<rect x="17.1" y="16.3" transform="matrix(6.123234e-17 -1 1 6.123234e-17 0.578 34.6367)" fill="#8C8C8C" width="1" height="1.4"/>
			
				<rect x="17.1" y="14.9" transform="matrix(6.123234e-17 -1 1 6.123234e-17 1.9742 33.2405)" fill="#8C8C8C" width="1" height="1.4"/>
			
				<rect x="17.1" y="13.5" transform="matrix(6.123234e-17 -1 1 6.123234e-17 3.3704 31.8443)" fill="#8C8C8C" width="1" height="1.4"/>
			
				<rect x="17.1" y="12.1" transform="matrix(6.123234e-17 -1 1 6.123234e-17 4.7666 30.448)" fill="#8C8C8C" width="1" height="1.4"/>
		</g>
		<g>
			
				<rect x="19.9" y="19.3" transform="matrix(6.123234e-17 -1 1 6.123234e-17 0.6693 40.1147)" fill="#8C8C8C" width="1.1" height="0.9"/>
			
				<rect x="21.3" y="19.3" transform="matrix(6.123234e-17 -1 1 6.123234e-17 2.1413 41.5867)" fill="#8C8C8C" width="1.1" height="0.9"/>
			
				<rect x="22.8" y="19.3" transform="matrix(6.123234e-17 -1 1 6.123234e-17 3.6133 43.0587)" fill="#8C8C8C" width="1.1" height="0.9"/>
			
				<rect x="24.3" y="19.3" transform="matrix(6.123234e-17 -1 1 6.123234e-17 5.0853 44.5307)" fill="#8C8C8C" width="1.1" height="0.9"/>
		</g>
		<g>
			
				<rect x="19.9" y="9.9" transform="matrix(6.123234e-17 -1 1 6.123234e-17 10.0809 30.7031)" fill="#8C8C8C" width="1.1" height="0.9"/>
			
				<rect x="21.3" y="9.9" transform="matrix(6.123234e-17 -1 1 6.123234e-17 11.5528 32.1751)" fill="#8C8C8C" width="1.1" height="0.9"/>
			
				<rect x="22.8" y="9.9" transform="matrix(6.123234e-17 -1 1 6.123234e-17 13.0248 33.6471)" fill="#8C8C8C" width="1.1" height="0.9"/>
			
				<rect x="24.3" y="9.9" transform="matrix(6.123234e-17 -1 1 6.123234e-17 14.4968 35.1191)" fill="#8C8C8C" width="1.1" height="0.9"/>
		</g>
	</g>
	<g>
		
			<rect x="20.1" y="23.4" transform="matrix(6.123234e-17 -1 1 6.123234e-17 -2.262 47.7855)" fill="#3B4149" width="5.4" height="3.2"/>
		<g>
			
				<rect x="19.5" y="25.6" transform="matrix(6.123234e-17 -1 1 6.123234e-17 -6.7065 46.7672)" fill="#8C8C8C" width="1" height="2.3"/>
			
				<rect x="19.5" y="23.9" transform="matrix(6.123234e-17 -1 1 6.123234e-17 -4.9934 45.0541)" fill="#8C8C8C" width="1" height="2.3"/>
			
				<rect x="19.5" y="22.1" transform="matrix(6.123234e-17 -1 1 6.123234e-17 -3.22 43.2807)" fill="#8C8C8C" width="1" height="2.3"/>
		</g>
		<g>
			
				<rect x="25" y="25.6" transform="matrix(6.123234e-17 -1 1 6.123234e-17 -1.2436 52.23)" fill="#8C8C8C" width="1" height="2.3"/>
			
				<rect x="25" y="23.9" transform="matrix(6.123234e-17 -1 1 6.123234e-17 0.4694 50.5169)" fill="#8C8C8C" width="1" height="2.3"/>
			
				<rect x="25" y="22.1" transform="matrix(6.123234e-17 -1 1 6.123234e-17 2.2428 48.7436)" fill="#8C8C8C" width="1" height="2.3"/>
		</g>
	</g>
	<g>
		
			<rect x="2.6" y="11.1" transform="matrix(6.123234e-17 -1 1 6.123234e-17 -10.2333 16.8444)" fill="#8C8C8C" width="1.4" height="4.8"/>
		
			<rect x="2.6" y="0.3" transform="matrix(6.123234e-17 -1 1 6.123234e-17 0.6225 5.9887)" fill="#8C8C8C" width="1.4" height="4.8"/>
		
			<rect x="-1.4" y="5.7" transform="matrix(6.123234e-17 -1 1 6.123234e-17 -4.8054 11.4165)" fill="#C9AC70" width="9.5" height="4.8"/>
	</g>
	
		<rect x="2.9" y="8.3" transform="matrix(6.123234e-17 -1 1 6.123234e-17 -7.4461 14.0572)" fill="#A26E3F" width="0.9" height="4.8"/>
	<g>
		
			<rect x="21.2" y="3.4" transform="matrix(-1 -1.224647e-16 1.224647e-16 -1 44.7591 10.73)" fill="#9A8470" width="2.4" height="4"/>
		
			<rect x="17.8" y="3.9" transform="matrix(6.123234e-17 -1 1 6.123234e-17 14.3712 25.1012)" fill="#8C8C8C" width="4" height="2.9"/>
		
			<rect x="23" y="3.9" transform="matrix(6.123234e-17 -1 1 6.123234e-17 19.6579 30.3879)" fill="#8C8C8C" width="4" height="2.9"/>
	</g>
	<g>
		
			<rect x="30.3" y="4.1" transform="matrix(6.123234e-17 -1 1 6.123234e-17 25.3958 37.6583)" fill="#9A8470" width="2.4" height="4"/>
		
			<rect x="29.8" y="7.1" transform="matrix(6.123234e-17 -1 1 6.123234e-17 22.4768 40.5773)" fill="#8C8C8C" width="3.4" height="4"/>
		
			<rect x="29.9" y="1.3" transform="matrix(6.123234e-17 -1 1 6.123234e-17 28.2304 34.8238)" fill="#8C8C8C" width="3.2" height="4"/>
	</g>
	<g>
		
			<rect x="31" y="14.1" transform="matrix(6.123234e-17 -1 1 6.123234e-17 16.8086 47.5926)" fill="#9A8470" width="2.3" height="2.6"/>
		
			<rect x="31" y="16.4" transform="matrix(6.123234e-17 -1 1 6.123234e-17 14.482 49.9192)" fill="#8C8C8C" width="2.3" height="2.6"/>
		
			<rect x="31" y="11.8" transform="matrix(6.123234e-17 -1 1 6.123234e-17 19.1143 45.2868)" fill="#8C8C8C" width="2.3" height="2.6"/>
	</g>
	<g>
		
			<rect x="12.2" y="14.1" transform="matrix(6.123234e-17 -1 1 6.123234e-17 -2.0691 28.715)" fill="#9A8470" width="2.3" height="2.6"/>
		
			<rect x="12.2" y="16.4" transform="matrix(6.123234e-17 -1 1 6.123234e-17 -4.3956 31.0416)" fill="#8C8C8C" width="2.3" height="2.6"/>
		
			<rect x="12.2" y="11.8" transform="matrix(6.123234e-17 -1 1 6.123234e-17 0.2367 26.4092)" fill="#8C8C8C" width="2.3" height="2.6"/>
	</g>
	<g>
		
			<rect x="12.1" y="22.5" transform="matrix(6.123234e-17 -1 1 6.123234e-17 -10.4382 37.0841)" fill="#3B4149" width="2.5" height="2.6"/>
		
			<rect x="12.2" y="24.8" transform="matrix(6.123234e-17 -1 1 6.123234e-17 -12.8048 39.4507)" fill="#8C8C8C" width="2.2" height="2.6"/>
		
			<rect x="12.2" y="20.1" transform="matrix(6.123234e-17 -1 1 6.123234e-17 -8.0716 34.7175)" fill="#8C8C8C" width="2.2" height="2.6"/>
	</g>
	<g>
		
			<rect x="31.1" y="22.9" transform="matrix(6.123234e-17 -1 1 6.123234e-17 8.1116 56.5983)" fill="#3B4149" width="2.5" height="2.6"/>
		
			<rect x="31.3" y="25.3" transform="matrix(6.123234e-17 -1 1 6.123234e-17 5.745 58.9649)" fill="#8C8C8C" width="2.2" height="2.6"/>
		
			<rect x="31.3" y="20.6" transform="matrix(6.123234e-17 -1 1 6.123234e-17 10.4782 54.2317)" fill="#8C8C8C" width="2.2" height="2.6"/>
	</g>
	<g>
		
			<rect x="26.3" y="28.5" transform="matrix(-1 -1.224647e-16 1.224647e-16 -1 55.1481 59.6472)" fill="#3B4149" width="2.5" height="2.6"/>
		
			<rect x="28.8" y="28.5" transform="matrix(-1 -1.224647e-16 1.224647e-16 -1 59.8813 59.6472)" fill="#8C8C8C" width="2.2" height="2.6"/>
		
			<rect x="24.1" y="28.5" transform="matrix(-1 -1.224647e-16 1.224647e-16 -1 50.4149 59.6472)" fill="#8C8C8C" width="2.2" height="2.6"/>
	</g>
	<g>
		
			<rect x="16.8" y="28.5" transform="matrix(-1 -1.224647e-16 1.224647e-16 -1 36.1339 59.6472)" fill="#3B4149" width="2.5" height="2.6"/>
		
			<rect x="19.3" y="28.5" transform="matrix(-1 -1.224647e-16 1.224647e-16 -1 40.8671 59.6472)" fill="#8C8C8C" width="2.2" height="2.6"/>
		
			<rect x="14.6" y="28.5" transform="matrix(-1 -1.224647e-16 1.224647e-16 -1 31.4007 59.6472)" fill="#8C8C8C" width="2.2" height="2.6"/>
	</g>
	<g>
		
			<rect x="3.8" y="28.5" transform="matrix(-1 -1.224647e-16 1.224647e-16 -1 9.5339 59.6472)" fill="#9A8470" width="1.9" height="2.6"/>
		
			<rect x="1.7" y="28.5" transform="matrix(-1 -1.224647e-16 1.224647e-16 -1 5.5291 59.6472)" fill="#8C8C8C" width="2.2" height="2.6"/>
		
			<rect x="5.7" y="28.5" transform="matrix(-1 -1.224647e-16 1.224647e-16 -1 13.5386 59.6472)" fill="#8C8C8C" width="2.2" height="2.6"/>
	</g>
	<circle fill="none" stroke="#9A916C" stroke-width="1.0833" stroke-miterlimit="10" cx="3.7" cy="36" r="2.1"/>
	<circle fill="none" stroke="#9A916C" stroke-width="1.0833" stroke-miterlimit="10" cx="10.9" cy="36" r="2.1"/>
	<circle fill="none" stroke="#9A916C" stroke-width="1.0833" stroke-miterlimit="10" cx="18.1" cy="36" r="2.1"/>
	<circle fill="none" stroke="#9A916C" stroke-width="1.0833" stroke-miterlimit="10" cx="25.3" cy="36" r="2.1"/>
	<circle fill="none" stroke="#9A916C" stroke-width="1.0833" stroke-miterlimit="10" cx="32.5" cy="36" r="2.1"/>
</g>
</svg>
