<?xml version='1.0' encoding='UTF-8' standalone='no'?>
<!-- Generator: Adobe Illustrator 23.0.2, SVG Export Plug-In . SVG Version: 6.00 Build 0)  -->
  <svg
  xmlns="http://www.w3.org/2000/svg"
  xmlns:xlink="http://www.w3.org/1999/xlink"
  version="1.2"
  baseProfile="tiny"
  id="Layer1"
  x="0px"
  y="0px"
  width="13mm"
  height="14mm"
  viewBox="0 0 36.755 39.49"
  xml:space="preserve">
  <g
    id="breadboard">
    <path
      fill="#0F3058"
      d="M-0.095,0v39.49h36.85V0H-0.095z M3.59,36.85c-0.783,0-1.417-0.635-1.417-1.417s0.635-1.417,1.417-1.417   c0.783,0,1.417,0.635,1.417,1.417S4.372,36.85,3.59,36.85z M10.79,36.85c-0.783,0-1.417-0.635-1.417-1.417s0.635-1.417,1.417-1.417   s1.417,0.635,1.417,1.417S11.572,36.85,10.79,36.85z M17.99,36.85c-0.783,0-1.417-0.635-1.417-1.417s0.635-1.417,1.417-1.417   s1.417,0.635,1.417,1.417S18.772,36.85,17.99,36.85z M25.19,36.85c-0.783,0-1.417-0.635-1.417-1.417s0.635-1.417,1.417-1.417   s1.417,0.635,1.417,1.417S25.972,36.85,25.19,36.85z M32.39,36.85c-0.783,0-1.417-0.635-1.417-1.417s0.635-1.417,1.417-1.417   c0.783,0,1.417,0.635,1.417,1.417S33.172,36.85,32.39,36.85z"
    />
    <g>
      <rect
        x="0.755"
        y="19.276"
        fill="#3B4149"
        width="7.937"
        height="4.252"
      />
      <g>
        <rect
          x="1.322"
          y="15.958"
          fill="#8C8C8C"
          width="1.474"
          height="3.317"
        />
        <rect
          x="6.651"
          y="15.958"
          fill="#8C8C8C"
          width="1.474"
          height="3.317"
        />
      </g>
      <g>
        <rect
          x="1.322"
          y="23.528"
          fill="#8C8C8C"
          width="1.474"
          height="3.345"
        />
        <rect
          x="3.986"
          y="23.528"
          fill="#8C8C8C"
          width="1.474"
          height="3.345"
        />
        <rect
          x="6.651"
          y="23.527"
          fill="#8C8C8C"
          width="1.474"
          height="3.345"
        />
      </g>
    </g>
    <g>
      <rect
        x="18.33"
        y="10.771"
        fill="#3B4149"
        width="8.504"
        height="8.504"
      />
      <g>
        <rect
          x="19.606"
          y="9.637"
          fill="#8C8C8C"
          width="0.85"
          height="1.134"
        />
        <rect
          x="21.307"
          y="9.638"
          fill="#8C8C8C"
          width="0.85"
          height="1.134"
        />
        <rect
          x="23.007"
          y="9.638"
          fill="#8C8C8C"
          width="0.85"
          height="1.134"
        />
        <rect
          x="24.708"
          y="9.638"
          fill="#8C8C8C"
          width="0.85"
          height="1.134"
        />
      </g>
      <g>
        <rect
          x="19.605"
          y="19.275"
          fill="#8C8C8C"
          width="0.85"
          height="1.134"
        />
        <rect
          x="21.306"
          y="19.276"
          fill="#8C8C8C"
          width="0.85"
          height="1.134"
        />
        <rect
          x="23.007"
          y="19.276"
          fill="#8C8C8C"
          width="0.85"
          height="1.134"
        />
        <rect
          x="24.707"
          y="19.275"
          fill="#8C8C8C"
          width="0.85"
          height="1.134"
        />
      </g>
      <g>
        <rect
          x="17.196"
          y="17.15"
          fill="#8C8C8C"
          width="1.134"
          height="0.85"
        />
        <rect
          x="17.196"
          y="15.449"
          fill="#8C8C8C"
          width="1.134"
          height="0.85"
        />
        <rect
          x="17.196"
          y="13.749"
          fill="#8C8C8C"
          width="1.134"
          height="0.85"
        />
        <rect
          x="17.196"
          y="12.048"
          fill="#8C8C8C"
          width="1.134"
          height="0.85"
        />
      </g>
      <g>
        <rect
          x="26.833"
          y="17.15"
          fill="#8C8C8C"
          width="1.134"
          height="0.85"
        />
        <rect
          x="26.833"
          y="15.449"
          fill="#8C8C8C"
          width="1.134"
          height="0.85"
        />
        <rect
          x="26.833"
          y="13.749"
          fill="#8C8C8C"
          width="1.134"
          height="0.85"
        />
        <rect
          x="26.833"
          y="12.048"
          fill="#8C8C8C"
          width="1.134"
          height="0.85"
        />
      </g>
    </g>
    <g>
      <rect
        x="21.164"
        y="22.11"
        fill="#3B4149"
        width="3.118"
        height="5.386"
      />
      <g>
        <rect
          x="18.896"
          y="25.938"
          fill="#8C8C8C"
          width="2.268"
          height="0.992"
        />
        <rect
          x="18.888"
          y="24.293"
          fill="#8C8C8C"
          width="2.268"
          height="0.992"
        />
        <rect
          x="18.888"
          y="22.677"
          fill="#8C8C8C"
          width="2.268"
          height="0.992"
        />
      </g>
      <g>
        <rect
          x="24.283"
          y="25.937"
          fill="#8C8C8C"
          width="2.284"
          height="0.99"
        />
        <rect
          x="24.282"
          y="24.293"
          fill="#8C8C8C"
          width="2.268"
          height="0.992"
        />
        <rect
          x="24.282"
          y="22.678"
          fill="#8C8C8C"
          width="2.268"
          height="0.992"
        />
      </g>
    </g>
    <g>
      <rect
        x="0.89"
        y="12.756"
        fill="#8C8C8C"
        width="4.819"
        height="1.701"
      />
      <rect
        x="0.897"
        y="1.7"
        fill="#8C8C8C"
        width="4.819"
        height="1.701"
      />
      <rect
        x="0.896"
        y="3.402"
        fill="#C9AC70"
        width="4.819"
        height="9.354"
      />
      <rect
        x="0.893"
        y="10.298"
        fill="#A26E3F"
        width="4.819"
        height="0.907"
      />
    </g>
    <g>
      <rect
        x="21.165"
        y="3.401"
        fill="#9A8470"
        width="2.409"
        height="3.968"
      />
      <rect
        x="18.33"
        y="3.402"
        fill="#8C8C8C"
        width="2.835"
        height="3.968"
      />
      <rect
        x="23.574"
        y="3.402"
        fill="#8C8C8C"
        width="2.835"
        height="3.968"
      />
    </g>
    <g>
      <rect
        x="29.669"
        y="4.962"
        fill="#9A8470"
        width="3.968"
        height="2.409"
      />
      <rect
        x="29.668"
        y="7.37"
        fill="#8C8C8C"
        width="3.968"
        height="3.26"
      />
      <rect
        x="29.668"
        y="1.701"
        fill="#8C8C8C"
        width="3.968"
        height="3.26"
      />
    </g>
    <g>
      <rect
        x="31.085"
        y="14.173"
        fill="#9A8470"
        width="2.551"
        height="2.268"
      />
      <rect
        x="31.085"
        y="16.441"
        fill="#8C8C8C"
        width="2.551"
        height="2.268"
      />
      <rect
        x="31.086"
        y="11.906"
        fill="#8C8C8C"
        width="2.551"
        height="2.268"
      />
    </g>
    <g>
      <rect
        x="12.093"
        y="14.173"
        fill="#9A8470"
        width="2.551"
        height="2.268"
      />
      <rect
        x="12.093"
        y="16.441"
        fill="#8C8C8C"
        width="2.551"
        height="2.268"
      />
      <rect
        x="12.094"
        y="11.906"
        fill="#8C8C8C"
        width="2.551"
        height="2.268"
      />
    </g>
    <g>
      <rect
        x="12.093"
        y="22.677"
        fill="#3B4149"
        width="2.551"
        height="2.551"
      />
      <rect
        x="12.094"
        y="25.228"
        fill="#8C8C8C"
        width="2.551"
        height="2.268"
      />
      <rect
        x="12.094"
        y="20.409"
        fill="#8C8C8C"
        width="2.551"
        height="2.268"
      />
    </g>
    <g>
      <rect
        x="31.086"
        y="22.904"
        fill="#3B4149"
        width="2.551"
        height="2.551"
      />
      <rect
        x="31.086"
        y="25.455"
        fill="#8C8C8C"
        width="2.551"
        height="2.211"
      />
      <rect
        x="31.086"
        y="20.693"
        fill="#8C8C8C"
        width="2.551"
        height="2.211"
      />
    </g>
    <g>
      <rect
        x="26.296"
        y="28.382"
        fill="#3B4149"
        width="2.551"
        height="2.551"
      />
      <rect
        x="28.847"
        y="28.382"
        fill="#8C8C8C"
        width="2.268"
        height="2.551"
      />
      <rect
        x="24.029"
        y="28.382"
        fill="#8C8C8C"
        width="2.268"
        height="2.551"
      />
    </g>
    <g>
      <rect
        x="16.913"
        y="28.347"
        fill="#3B4149"
        width="2.551"
        height="2.551"
      />
      <rect
        x="19.463"
        y="28.347"
        fill="#8C8C8C"
        width="2.268"
        height="2.551"
      />
      <rect
        x="14.644"
        y="28.347"
        fill="#8C8C8C"
        width="2.268"
        height="2.551"
      />
    </g>
    <g>
      <rect
        x="3.816"
        y="28.347"
        fill="#9A8470"
        width="1.843"
        height="2.551"
      />
      <rect
        x="1.662"
        y="28.347"
        fill="#8C8C8C"
        width="2.154"
        height="2.551"
      />
      <rect
        x="5.659"
        y="28.347"
        fill="#8C8C8C"
        width="2.154"
        height="2.551"
      />
    </g>
    <circle
      fill="none"
      stroke="#9A916C"
      stroke-width="1.0816"
      stroke-miterlimit="10"
      cx="3.59"
      cy="35.433"
      r="1.956"
    />
    <circle
      fill="none"
      stroke="#9A916C"
      stroke-width="1.0833"
      stroke-miterlimit="10"
      cx="10.79"
      cy="35.433"
      r="1.956"
    />
    <circle
      fill="none"
      stroke="#9A916C"
      stroke-width="1.0833"
      stroke-miterlimit="10"
      cx="17.99"
      cy="35.433"
      r="1.956"
    />
    <circle
      fill="none"
      stroke="#9A916C"
      stroke-width="1.0833"
      stroke-miterlimit="10"
      cx="25.19"
      cy="35.433"
      r="1.956"
    />
    <circle
      fill="none"
      stroke="#9A916C"
      stroke-width="1.0833"
      stroke-miterlimit="10"
      cx="32.39"
      cy="35.433"
      r="1.956"
    />
  </g>
</svg>
