<?xml version='1.0' encoding='UTF-8' standalone='no'?>
<!-- Generator: Adobe Illustrator 23.0.2, SVG Export Plug-In . SVG Version: 6.00 Build 0)  -->
  <svg
  xmlns="http://www.w3.org/2000/svg"
  xmlns:xlink="http://www.w3.org/1999/xlink"
  version="1.2"
  baseProfile="tiny"
  x="0px"
  y="0px"
  width="13mm"
  height="14mm"
  viewBox="0 0 36.755 39.49"
  xml:space="preserve">
  <g
    id="breadboard">
    <path
      fill="#0F3058"
      d="M-0.095,0v39.49h36.85V0H-0.095z M3.59,36.85c-0.783,0-1.417-0.635-1.417-1.417s0.635-1.417,1.417-1.417   c0.783,0,1.417,0.635,1.417,1.417S4.372,36.85,3.59,36.85z M10.79,36.85c-0.783,0-1.417-0.635-1.417-1.417s0.635-1.417,1.417-1.417   s1.417,0.635,1.417,1.417S11.572,36.85,10.79,36.85z M17.99,36.85c-0.783,0-1.417-0.635-1.417-1.417s0.635-1.417,1.417-1.417   s1.417,0.635,1.417,1.417S18.772,36.85,17.99,36.85z M25.19,36.85c-0.783,0-1.417-0.635-1.417-1.417s0.635-1.417,1.417-1.417   s1.417,0.635,1.417,1.417S25.972,36.85,25.19,36.85z M32.39,36.85c-0.783,0-1.417-0.635-1.417-1.417s0.635-1.417,1.417-1.417   c0.783,0,1.417,0.635,1.417,1.417S33.172,36.85,32.39,36.85z"
    />
    <g>
      <rect
        x="2.597"
        y="17.433"
        transform="matrix(6.123234e-17 -1 1 6.123234e-17 -16.6781 26.125)"
        fill="#3B4149"
        width="4.252"
        height="7.937"
      />
      <g>
        <rect
          x="0.401"
          y="16.88"
          transform="matrix(6.123234e-17 -1 1 6.123234e-17 -15.5584 19.6762)"
          fill="#8C8C8C"
          width="3.317"
          height="1.474"
        />
        <rect
          x="5.73"
          y="16.88"
          transform="matrix(6.123234e-17 -1 1 6.123234e-17 -10.2293 25.0054)"
          fill="#8C8C8C"
          width="3.317"
          height="1.474"
        />
      </g>
      <g>
        <rect
          x="0.386"
          y="24.463"
          transform="matrix(6.123234e-17 -1 1 6.123234e-17 -23.1411 27.2589)"
          fill="#8C8C8C"
          width="3.345"
          height="1.474"
        />
        <rect
          x="3.051"
          y="24.463"
          transform="matrix(6.123234e-17 -1 1 6.123234e-17 -20.4765 29.9235)"
          fill="#8C8C8C"
          width="3.345"
          height="1.474"
        />
        <rect
          x="5.716"
          y="24.463"
          transform="matrix(6.123234e-17 -1 1 6.123234e-17 -17.812 32.588)"
          fill="#8C8C8C"
          width="3.345"
          height="1.474"
        />
      </g>
    </g>
    <g>
      <rect
        x="18.33"
        y="10.772"
        transform="matrix(6.123234e-17 -1 1 6.123234e-17 7.5581 37.6054)"
        fill="#3B4149"
        width="8.504"
        height="8.504"
      />
      <g>
        <rect
          x="19.464"
          y="9.78"
          transform="matrix(6.123234e-17 -1 1 6.123234e-17 9.8258 30.2353)"
          fill="#8C8C8C"
          width="1.134"
          height="0.85"
        />
        <rect
          x="21.164"
          y="9.78"
          transform="matrix(6.123234e-17 -1 1 6.123234e-17 11.5266 31.9361)"
          fill="#8C8C8C"
          width="1.134"
          height="0.85"
        />
        <rect
          x="22.865"
          y="9.78"
          transform="matrix(6.123234e-17 -1 1 6.123234e-17 13.2274 33.6368)"
          fill="#8C8C8C"
          width="1.134"
          height="0.85"
        />
        <rect
          x="24.566"
          y="9.78"
          transform="matrix(6.123234e-17 -1 1 6.123234e-17 14.9282 35.3376)"
          fill="#8C8C8C"
          width="1.134"
          height="0.85"
        />
      </g>
      <g>
        <rect
          x="19.464"
          y="19.417"
          transform="matrix(6.123234e-17 -1 1 6.123234e-17 0.188 39.8731)"
          fill="#8C8C8C"
          width="1.134"
          height="0.85"
        />
        <rect
          x="21.164"
          y="19.417"
          transform="matrix(6.123234e-17 -1 1 6.123234e-17 1.8888 41.5739)"
          fill="#8C8C8C"
          width="1.134"
          height="0.85"
        />
        <rect
          x="22.865"
          y="19.417"
          transform="matrix(6.123234e-17 -1 1 6.123234e-17 3.5896 43.2746)"
          fill="#8C8C8C"
          width="1.134"
          height="0.85"
        />
        <rect
          x="24.566"
          y="19.417"
          transform="matrix(6.123234e-17 -1 1 6.123234e-17 5.2904 44.9754)"
          fill="#8C8C8C"
          width="1.134"
          height="0.85"
        />
      </g>
      <g>
        <rect
          x="17.196"
          y="17.15"
          transform="matrix(-1 -4.491886e-11 4.491886e-11 -1 35.5257 35.1496)"
          fill="#8C8C8C"
          width="1.134"
          height="0.85"
        />
        <rect
          x="17.196"
          y="15.449"
          transform="matrix(-1 -4.491886e-11 4.491886e-11 -1 35.5257 31.748)"
          fill="#8C8C8C"
          width="1.134"
          height="0.85"
        />
        <rect
          x="17.196"
          y="13.748"
          transform="matrix(-1 -4.491886e-11 4.491886e-11 -1 35.5257 28.3465)"
          fill="#8C8C8C"
          width="1.134"
          height="0.85"
        />
        <rect
          x="17.196"
          y="12.047"
          transform="matrix(-1 -4.491886e-11 4.491886e-11 -1 35.5257 24.9449)"
          fill="#8C8C8C"
          width="1.134"
          height="0.85"
        />
      </g>
      <g>
        <rect
          x="26.834"
          y="17.15"
          transform="matrix(-1 -4.491886e-11 4.491886e-11 -1 54.8013 35.1496)"
          fill="#8C8C8C"
          width="1.134"
          height="0.85"
        />
        <rect
          x="26.834"
          y="15.449"
          transform="matrix(-1 -4.491886e-11 4.491886e-11 -1 54.8013 31.748)"
          fill="#8C8C8C"
          width="1.134"
          height="0.85"
        />
        <rect
          x="26.834"
          y="13.748"
          transform="matrix(-1 -4.491886e-11 4.491886e-11 -1 54.8013 28.3465)"
          fill="#8C8C8C"
          width="1.134"
          height="0.85"
        />
        <rect
          x="26.834"
          y="12.047"
          transform="matrix(-1 -4.491886e-11 4.491886e-11 -1 54.8013 24.9449)"
          fill="#8C8C8C"
          width="1.134"
          height="0.85"
        />
      </g>
    </g>
    <g>
      <rect
        x="20.031"
        y="23.244"
        transform="matrix(6.123234e-17 -1 1 6.123234e-17 -2.0797 47.5266)"
        fill="#3B4149"
        width="5.386"
        height="3.118"
      />
      <g>
        <rect
          x="19.534"
          y="25.299"
          transform="matrix(6.123234e-17 -1 1 6.123234e-17 -6.4025 46.4636)"
          fill="#8C8C8C"
          width="0.992"
          height="2.268"
        />
        <rect
          x="19.526"
          y="23.655"
          transform="matrix(6.123234e-17 -1 1 6.123234e-17 -4.7669 44.811)"
          fill="#8C8C8C"
          width="0.992"
          height="2.268"
        />
        <rect
          x="19.526"
          y="22.039"
          transform="matrix(6.123234e-17 -1 1 6.123234e-17 -3.1512 43.1953)"
          fill="#8C8C8C"
          width="0.992"
          height="2.268"
        />
      </g>
      <g>
        <rect
          x="24.93"
          y="25.29"
          transform="matrix(6.123234e-17 -1 1 6.123234e-17 -1.0073 51.8565)"
          fill="#8C8C8C"
          width="0.99"
          height="2.284"
        />
        <rect
          x="24.92"
          y="23.655"
          transform="matrix(6.123234e-17 -1 1 6.123234e-17 0.6274 50.2053)"
          fill="#8C8C8C"
          width="0.992"
          height="2.268"
        />
        <rect
          x="24.92"
          y="22.039"
          transform="matrix(6.123234e-17 -1 1 6.123234e-17 2.2431 48.5896)"
          fill="#8C8C8C"
          width="0.992"
          height="2.268"
        />
      </g>
    </g>
    <g>
      <rect
        x="2.449"
        y="11.197"
        transform="matrix(6.123234e-17 -1 1 6.123234e-17 -10.307 16.9056)"
        fill="#8C8C8C"
        width="1.701"
        height="4.819"
      />
      <rect
        x="2.456"
        y="0.142"
        transform="matrix(6.123234e-17 -1 1 6.123234e-17 0.755 5.8573)"
        fill="#8C8C8C"
        width="1.701"
        height="4.819"
      />
      <rect
        x="-1.371"
        y="5.669"
        transform="matrix(6.123234e-17 -1 1 6.123234e-17 -4.7726 11.3849)"
        fill="#C9AC70"
        width="9.354"
        height="4.819"
      />
      <rect
        x="2.849"
        y="8.342"
        transform="matrix(6.123234e-17 -1 1 6.123234e-17 -7.4489 14.0543)"
        fill="#A26E3F"
        width="0.907"
        height="4.819"
      />
    </g>
    <g>
      <rect
        x="21.164"
        y="3.402"
        transform="matrix(-1 -1.224647e-16 1.224647e-16 -1 44.7383 10.7708)"
        fill="#9A8470"
        width="2.409"
        height="3.968"
      />
      <rect
        x="17.763"
        y="3.968"
        transform="matrix(6.123234e-17 -1 1 6.123234e-17 14.3617 25.1325)"
        fill="#8C8C8C"
        width="3.968"
        height="2.835"
      />
      <rect
        x="23.007"
        y="3.968"
        transform="matrix(6.123234e-17 -1 1 6.123234e-17 19.6058 30.3766)"
        fill="#8C8C8C"
        width="3.968"
        height="2.835"
      />
    </g>
    <g>
      <rect
        x="30.447"
        y="4.182"
        transform="matrix(6.123234e-17 -1 1 6.123234e-17 25.4868 37.8175)"
        fill="#9A8470"
        width="2.409"
        height="3.968"
      />
      <rect
        x="30.022"
        y="7.016"
        transform="matrix(6.123234e-17 -1 1 6.123234e-17 22.6522 40.6521)"
        fill="#8C8C8C"
        width="3.26"
        height="3.968"
      />
      <rect
        x="30.022"
        y="1.347"
        transform="matrix(6.123234e-17 -1 1 6.123234e-17 28.3214 34.9829)"
        fill="#8C8C8C"
        width="3.26"
        height="3.968"
      />
    </g>
    <g>
      <rect
        x="31.227"
        y="14.031"
        transform="matrix(6.123234e-17 -1 1 6.123234e-17 17.0542 47.6683)"
        fill="#9A8470"
        width="2.268"
        height="2.551"
      />
      <rect
        x="31.227"
        y="16.299"
        transform="matrix(6.123234e-17 -1 1 6.123234e-17 14.7865 49.9361)"
        fill="#8C8C8C"
        width="2.268"
        height="2.551"
      />
      <rect
        x="31.227"
        y="11.764"
        transform="matrix(6.123234e-17 -1 1 6.123234e-17 19.3219 45.4006)"
        fill="#8C8C8C"
        width="2.268"
        height="2.551"
      />
    </g>
    <g>
      <rect
        x="12.235"
        y="14.031"
        transform="matrix(6.123234e-17 -1 1 6.123234e-17 -1.938 28.6762)"
        fill="#9A8470"
        width="2.268"
        height="2.551"
      />
      <rect
        x="12.235"
        y="16.299"
        transform="matrix(6.123234e-17 -1 1 6.123234e-17 -4.2057 30.9439)"
        fill="#8C8C8C"
        width="2.268"
        height="2.551"
      />
      <rect
        x="12.235"
        y="11.764"
        transform="matrix(6.123234e-17 -1 1 6.123234e-17 0.3298 26.4085)"
        fill="#8C8C8C"
        width="2.268"
        height="2.551"
      />
    </g>
    <g>
      <rect
        x="12.094"
        y="22.677"
        transform="matrix(6.123234e-17 -1 1 6.123234e-17 -10.5836 37.3219)"
        fill="#3B4149"
        width="2.551"
        height="2.551"
      />
      <rect
        x="12.235"
        y="25.087"
        transform="matrix(6.123234e-17 -1 1 6.123234e-17 -12.9931 39.7313)"
        fill="#8C8C8C"
        width="2.268"
        height="2.551"
      />
      <rect
        x="12.235"
        y="20.268"
        transform="matrix(6.123234e-17 -1 1 6.123234e-17 -8.1742 34.9124)"
        fill="#8C8C8C"
        width="2.268"
        height="2.551"
      />
    </g>
    <g>
      <rect
        x="31.086"
        y="22.904"
        transform="matrix(6.123234e-17 -1 1 6.123234e-17 8.1817 56.5408)"
        fill="#3B4149"
        width="2.551"
        height="2.551"
      />
      <rect
        x="31.256"
        y="25.285"
        transform="matrix(6.123234e-17 -1 1 6.123234e-17 5.8006 58.9219)"
        fill="#8C8C8C"
        width="2.211"
        height="2.551"
      />
      <rect
        x="31.256"
        y="20.523"
        transform="matrix(6.123234e-17 -1 1 6.123234e-17 10.5628 54.1597)"
        fill="#8C8C8C"
        width="2.211"
        height="2.551"
      />
    </g>
    <g>
      <rect
        x="26.297"
        y="28.381"
        transform="matrix(-1 -1.224647e-16 1.224647e-16 -1 55.1445 59.3135)"
        fill="#3B4149"
        width="2.551"
        height="2.551"
      />
      <rect
        x="28.848"
        y="28.381"
        transform="matrix(-1 -1.224647e-16 1.224647e-16 -1 59.9634 59.3135)"
        fill="#8C8C8C"
        width="2.268"
        height="2.551"
      />
      <rect
        x="24.029"
        y="28.381"
        transform="matrix(-1 -1.224647e-16 1.224647e-16 -1 50.3256 59.3135)"
        fill="#8C8C8C"
        width="2.268"
        height="2.551"
      />
    </g>
    <g>
      <rect
        x="16.912"
        y="28.346"
        transform="matrix(-1 -1.224647e-16 1.224647e-16 -1 36.3761 59.2441)"
        fill="#3B4149"
        width="2.551"
        height="2.551"
      />
      <rect
        x="19.464"
        y="28.346"
        transform="matrix(-1 -1.224647e-16 1.224647e-16 -1 41.195 59.2441)"
        fill="#8C8C8C"
        width="2.268"
        height="2.551"
      />
      <rect
        x="14.645"
        y="28.346"
        transform="matrix(-1 -1.224647e-16 1.224647e-16 -1 31.5572 59.2441)"
        fill="#8C8C8C"
        width="2.268"
        height="2.551"
      />
    </g>
    <g>
      <rect
        x="3.816"
        y="28.346"
        transform="matrix(-1 -1.224647e-16 1.224647e-16 -1 9.4753 59.2441)"
        fill="#9A8470"
        width="1.843"
        height="2.551"
      />
      <rect
        x="1.662"
        y="28.346"
        transform="matrix(-1 -1.224647e-16 1.224647e-16 -1 5.4784 59.2441)"
        fill="#8C8C8C"
        width="2.154"
        height="2.551"
      />
      <rect
        x="5.659"
        y="28.346"
        transform="matrix(-1 -1.224647e-16 1.224647e-16 -1 13.4721 59.2441)"
        fill="#8C8C8C"
        width="2.154"
        height="2.551"
      />
    </g>
    <circle
      id="connector0pin"
      fill="none"
      stroke="#9A916C"
      stroke-width="1.0816"
      stroke-miterlimit="10"
      cx="3.59"
      cy="35.433"
      r="1.956"
    />
    <circle
      id="connector1pin"
      fill="none"
      stroke="#9A916C"
      stroke-width="1.0833"
      stroke-miterlimit="10"
      cx="10.79"
      cy="35.433"
      r="1.956"
    />
    <circle
      id="connector2pin"
      fill="none"
      stroke="#9A916C"
      stroke-width="1.0833"
      stroke-miterlimit="10"
      cx="17.99"
      cy="35.433"
      r="1.956"
    />
    <circle
      id="connector3pin"
      fill="none"
      stroke="#9A916C"
      stroke-width="1.0833"
      stroke-miterlimit="10"
      cx="25.19"
      cy="35.433"
      r="1.956"
    />
    <circle
      id="connector4pin"
      fill="none"
      stroke="#9A916C"
      stroke-width="1.0833"
      stroke-miterlimit="10"
      cx="32.39"
      cy="35.433"
      r="1.956"
    />
  </g>
</svg>
