<?xml version="1.0" encoding="utf-8"?>
<!-- Generator: Adobe Illustrator 23.0.2, SVG Export Plug-In . SVG Version: 6.00 Build 0)  -->
<svg version="1.2" baseProfile="tiny" id="Layer1" xmlns="http://www.w3.org/2000/svg" xmlns:xlink="http://www.w3.org/1999/xlink"
	 x="0px" y="0px" width="11.46mm" height="14mm" viewBox="0 0 32.485 39.685" xml:space="preserve">
<g id="schematic">
	
		<line fill="none" stroke="#555555" stroke-width="0.7002" stroke-linecap="round" stroke-miterlimit="10" x1="19.791" y1="7.198" x2="19.791" y2="0.402"/>
	
		<line fill="none" stroke="#555555" stroke-width="0.7" stroke-linecap="round" stroke-miterlimit="10" x1="19.791" y1="39.284" x2="19.791" y2="32.387"/>
	
		<line fill="none" stroke="#555555" stroke-width="0.7" stroke-linecap="round" stroke-miterlimit="10" x1="7.197" y1="12.796" x2="0.3" y2="12.796"/>
	
		<line fill="none" stroke="#555555" stroke-width="0.7" stroke-linecap="round" stroke-miterlimit="10" x1="7.197" y1="19.893" x2="0.3" y2="19.893"/>
	
		<line fill="none" stroke="#555555" stroke-width="0.7" stroke-linecap="round" stroke-miterlimit="10" x1="7.197" y1="26.889" x2="0.3" y2="26.889"/>
	<g>
		
			<rect x="7.197" y="7.198" fill="#FFFFFF" stroke="#231815" stroke-width="0.9076" stroke-miterlimit="10" width="25.288" height="25.188"/>
		<text transform="matrix(0.9966 0 0 1 8.2109 13.7953)" fill="#555555" font-family="'DroidSans'" font-size="3.5">SCL</text>
		<text transform="matrix(0.9966 0 0 1 8.2109 20.8954)" fill="#555555" font-family="'DroidSans'" font-size="3.5">SDA</text>
		<text transform="matrix(0.9966 0 0 1 8.2109 27.9941)" fill="#555555" font-family="'DroidSans'" font-size="3.5">DRDY</text>
		<text transform="matrix(0.9966 0 0 1 19.8154 11.5229)" fill="#555555" font-family="'DroidSans'" font-size="3.5">Vcc</text>
		<text transform="matrix(0.9966 0 0 1 19.813 30.5517)" fill="#555555" font-family="'DroidSans'" font-size="3.5">Gnd</text>
	</g>
	<rect id="connector4pin" y="26.589" fill="none" width="0.7" height="0.7"/>
	<rect id="connector3pin" y="19.593" fill="none" width="0.7" height="0.7"/>
	<rect id="connector2pin" y="12.396" fill="none" width="0.7" height="0.7"/>
	<rect id="connector1pin" x="19.491" y="38.984" fill="none" width="0.7" height="0.7"/>
	<rect id="connector0pin" x="19.491" y="0.002" fill="none" width="0.7" height="0.7"/>
</g>
</svg>
