<?xml version='1.0' encoding='UTF-8' standalone='no'?>
<!-- Generator: Adobe Illustrator 22.1.0, SVG Export Plug-In . SVG Version: 6.00 Build 0)  -->
  <svg
  xmlns="http://www.w3.org/2000/svg"
  xmlns:xlink="http://www.w3.org/1999/xlink"
  version="1.1"
  id="layer1"
  x="0px"
  y="0px"
  width="12.98mm"
  height="13.93mm"
  viewBox="0 0 36.8 39.5"
  xml:space="preserve"
  enable-background="new 0 0 36.8 39.5">
  <style
    type="text/css">
	.st0{fill:#0F3058;}
	.st1{fill:#3B4149;}
	.st2{fill:#8C8C8C;}
	.st3{fill:#C9AC70;}
	.st4{fill:#A26E3F;}
	.st5{fill:#9A8470;}
	.st6{fill:none;stroke:#9A916C;stroke-width:1.0816;stroke-miterlimit:10;}
	.st7{fill:none;stroke:#9A916C;stroke-width:1.0833;stroke-miterlimit:10;}
</style>
  <g
    id="breadboard">
    <path
      class="st0"
      d="M-0.1,0v39.5h36.8V0H-0.1z M3.6,37.5c-1.1,0-2.1-0.9-2.1-2.1s0.9-2.1,2.1-2.1s2.1,0.9,2.1,2.1   S4.7,37.5,3.6,37.5z M10.8,37.5c-1.1,0-2.1-0.9-2.1-2.1s0.9-2.1,2.1-2.1s2.1,0.9,2.1,2.1S11.9,37.5,10.8,37.5z M18,37.5   c-1.1,0-2.1-0.9-2.1-2.1s0.9-2.1,2.1-2.1s2.1,0.9,2.1,2.1S19.1,37.5,18,37.5z M25.2,37.5c-1.1,0-2.1-0.9-2.1-2.1s0.9-2.1,2.1-2.1   s2.1,0.9,2.1,2.1S26.3,37.5,25.2,37.5z M32.4,37.5c-1.1,0-2.1-0.9-2.1-2.1s0.9-2.1,2.1-2.1c1.1,0,2.1,0.9,2.1,2.1   S33.5,37.5,32.4,37.5z"
    />
    <g>
      <rect
        x="0.8"
        y="19.3"
        class="st1"
        width="7.9"
        height="4.3"
      />
      <g>
        <rect
          x="1.3"
          y="16"
          class="st2"
          width="1.5"
          height="3.3"
        />
        <rect
          x="6.7"
          y="16"
          class="st2"
          width="1.5"
          height="3.3"
        />
      </g>
      <g>
        <rect
          x="1.3"
          y="23.5"
          class="st2"
          width="1.5"
          height="3.3"
        />
        <rect
          x="4"
          y="23.5"
          class="st2"
          width="1.5"
          height="3.3"
        />
        <rect
          x="6.7"
          y="23.5"
          class="st2"
          width="1.5"
          height="3.3"
        />
      </g>
    </g>
    <g>
      <rect
        x="18.3"
        y="10.8"
        class="st1"
        width="8.5"
        height="8.5"
      />
      <g>
        <rect
          x="19.6"
          y="9.6"
          class="st2"
          width="0.9"
          height="1.1"
        />
        <rect
          x="21.3"
          y="9.6"
          class="st2"
          width="0.9"
          height="1.1"
        />
        <rect
          x="23"
          y="9.6"
          class="st2"
          width="0.9"
          height="1.1"
        />
        <rect
          x="24.7"
          y="9.6"
          class="st2"
          width="0.9"
          height="1.1"
        />
      </g>
      <g>
        <rect
          x="19.6"
          y="19.3"
          class="st2"
          width="0.9"
          height="1.1"
        />
        <rect
          x="21.3"
          y="19.3"
          class="st2"
          width="0.9"
          height="1.1"
        />
        <rect
          x="23"
          y="19.3"
          class="st2"
          width="0.9"
          height="1.1"
        />
        <rect
          x="24.7"
          y="19.3"
          class="st2"
          width="0.9"
          height="1.1"
        />
      </g>
      <g>
        <rect
          x="17.2"
          y="17.1"
          class="st2"
          width="1.1"
          height="0.9"
        />
        <rect
          x="17.2"
          y="15.4"
          class="st2"
          width="1.1"
          height="0.8"
        />
        <rect
          x="17.2"
          y="13.7"
          class="st2"
          width="1.1"
          height="0.9"
        />
        <rect
          x="17.2"
          y="12"
          class="st2"
          width="1.1"
          height="0.9"
        />
      </g>
      <g>
        <rect
          x="26.8"
          y="17.1"
          class="st2"
          width="1.1"
          height="0.9"
        />
        <rect
          x="26.8"
          y="15.4"
          class="st2"
          width="1.1"
          height="0.8"
        />
        <rect
          x="26.8"
          y="13.7"
          class="st2"
          width="1.1"
          height="0.9"
        />
        <rect
          x="26.8"
          y="12"
          class="st2"
          width="1.1"
          height="0.9"
        />
      </g>
    </g>
    <g>
      <rect
        x="21.2"
        y="22.1"
        class="st1"
        width="3.1"
        height="5.4"
      />
      <g>
        <rect
          x="18.9"
          y="25.9"
          class="st2"
          width="2.3"
          height="1"
        />
        <rect
          x="18.9"
          y="24.3"
          class="st2"
          width="2.3"
          height="1"
        />
        <rect
          x="18.9"
          y="22.7"
          class="st2"
          width="2.3"
          height="1"
        />
      </g>
      <g>
        <rect
          x="24.3"
          y="25.9"
          class="st2"
          width="2.3"
          height="1"
        />
        <rect
          x="24.3"
          y="24.3"
          class="st2"
          width="2.3"
          height="1"
        />
        <rect
          x="24.3"
          y="22.7"
          class="st2"
          width="2.3"
          height="1"
        />
      </g>
    </g>
    <g>
      <rect
        x="0.9"
        y="12.8"
        class="st2"
        width="4.8"
        height="1.7"
      />
      <rect
        x="0.9"
        y="1.7"
        class="st2"
        width="4.8"
        height="1.7"
      />
      <rect
        x="0.9"
        y="3.4"
        class="st3"
        width="4.8"
        height="9.4"
      />
      <rect
        x="0.9"
        y="10.3"
        class="st4"
        width="4.8"
        height="0.9"
      />
    </g>
    <g>
      <rect
        x="21.2"
        y="3.4"
        class="st5"
        width="2.4"
        height="4"
      />
      <rect
        x="18.3"
        y="3.4"
        class="st2"
        width="2.8"
        height="4"
      />
      <rect
        x="23.6"
        y="3.4"
        class="st2"
        width="2.8"
        height="4"
      />
    </g>
    <g>
      <rect
        x="29.7"
        y="5"
        class="st5"
        width="4"
        height="2.4"
      />
      <rect
        x="29.7"
        y="7.4"
        class="st2"
        width="4"
        height="3.3"
      />
      <rect
        x="29.7"
        y="1.7"
        class="st2"
        width="4"
        height="3.3"
      />
    </g>
    <g>
      <rect
        x="31.1"
        y="14.2"
        class="st5"
        width="2.6"
        height="2.3"
      />
      <rect
        x="31.1"
        y="16.4"
        class="st2"
        width="2.6"
        height="2.3"
      />
      <rect
        x="31.1"
        y="11.9"
        class="st2"
        width="2.6"
        height="2.3"
      />
    </g>
    <g>
      <rect
        x="12.1"
        y="14.2"
        class="st5"
        width="2.6"
        height="2.3"
      />
      <rect
        x="12.1"
        y="16.4"
        class="st2"
        width="2.6"
        height="2.3"
      />
      <rect
        x="12.1"
        y="11.9"
        class="st2"
        width="2.6"
        height="2.3"
      />
    </g>
    <g>
      <rect
        x="12.1"
        y="22.7"
        class="st1"
        width="2.6"
        height="2.6"
      />
      <rect
        x="12.1"
        y="25.2"
        class="st2"
        width="2.6"
        height="2.3"
      />
      <rect
        x="12.1"
        y="20.4"
        class="st2"
        width="2.6"
        height="2.3"
      />
    </g>
    <g>
      <rect
        x="31.1"
        y="22.9"
        class="st1"
        width="2.6"
        height="2.6"
      />
      <rect
        x="31.1"
        y="25.5"
        class="st2"
        width="2.6"
        height="2.2"
      />
      <rect
        x="31.1"
        y="20.7"
        class="st2"
        width="2.6"
        height="2.2"
      />
    </g>
    <g>
      <rect
        x="26.3"
        y="28.4"
        class="st1"
        width="2.6"
        height="2.6"
      />
      <rect
        x="28.8"
        y="28.4"
        class="st2"
        width="2.3"
        height="2.6"
      />
      <rect
        x="24"
        y="28.4"
        class="st2"
        width="2.3"
        height="2.6"
      />
    </g>
    <g>
      <rect
        x="16.9"
        y="28.3"
        class="st1"
        width="2.6"
        height="2.6"
      />
      <rect
        x="19.5"
        y="28.3"
        class="st2"
        width="2.3"
        height="2.6"
      />
      <rect
        x="14.6"
        y="28.3"
        class="st2"
        width="2.3"
        height="2.6"
      />
    </g>
    <g>
      <rect
        x="3.8"
        y="28.3"
        class="st5"
        width="1.8"
        height="2.6"
      />
      <rect
        x="1.7"
        y="28.3"
        class="st2"
        width="2.2"
        height="2.6"
      />
      <rect
        x="5.7"
        y="28.3"
        class="st2"
        width="2.2"
        height="2.6"
      />
    </g>
    <circle
      class="st6"
      cx="3.6"
      cy="35.4"
      r="2.1"
    />
    <circle
      class="st7"
      cx="10.8"
      cy="35.4"
      r="2.1"
    />
    <circle
      class="st7"
      cx="18"
      cy="35.4"
      r="2.1"
    />
    <circle
      class="st7"
      cx="25.2"
      cy="35.4"
      r="2.1"
    />
    <circle
      class="st7"
      cx="32.4"
      cy="35.4"
      r="2.1"
    />
  </g>
</svg>
